<svg width="124" height="51" viewBox="0 0 124 51" fill="none" xmlns="http://www.w3.org/2000/svg">
<path d="M1 49.9375C0.916667 49.7292 0.875 48.9792 0.875 47.6875C0.875 46.3958 0.875 44.7708 0.875 42.8125C0.916667 40.8542 0.958333 38.6667 1 36.25C1.08333 33.7917 1.14583 31.3125 1.1875 28.8125C1.27083 26.2708 1.35417 23.8125 1.4375 21.4375C1.52083 19.0208 1.58333 16.875 1.625 15C1.70833 13.125 1.77083 11.6042 1.8125 10.4375C1.85417 9.22917 1.89583 8.58333 1.9375 8.5C1.97917 8.33333 2.16667 7.91667 2.5 7.25C2.83333 6.58333 3.20833 5.89583 3.625 5.1875C4.08333 4.4375 4.54167 3.79167 5 3.25C5.45833 2.66667 5.85417 2.39583 6.1875 2.4375C6.3125 2.47917 6.41667 3.3125 6.5 4.9375C6.625 6.52083 6.72917 8.5625 6.8125 11.0625C6.9375 13.5625 7.02083 16.3333 7.0625 19.375C7.14583 22.375 7.20833 25.3125 7.25 28.1875C7.33333 31.0208 7.39583 33.6042 7.4375 35.9375C7.47917 38.2292 7.52083 39.9167 7.5625 41C8.89583 41.125 10.2292 41.2292 11.5625 41.3125C12.9375 41.3958 14.1667 41.5 15.25 41.625C16.3333 41.7083 17.2083 41.7917 17.875 41.875C18.5833 41.9583 18.9583 42.0208 19 42.0625C19.125 42.2292 19.2917 42.625 19.5 43.25C19.75 43.8333 19.9792 44.4792 20.1875 45.1875C20.3958 45.8542 20.5417 46.4792 20.625 47.0625C20.75 47.6458 20.7292 48 20.5625 48.125C15.7708 49 12.0625 49.5833 9.4375 49.875C6.8125 50.1667 4.875 50.3125 3.625 50.3125C2.16667 50.3125 1.29167 50.1875 1 49.9375ZM34.5 14.5625C34.5833 14.6875 34.7083 15.2708 34.875 16.3125C35.0417 17.3542 35.2083 18.6458 35.375 20.1875C35.5833 21.7292 35.7708 23.3958 35.9375 25.1875C36.1458 26.9792 36.3333 28.6875 36.5 30.3125C36.7083 31.9375 36.875 33.3958 37 34.6875C37.125 35.9792 37.2292 36.8542 37.3125 37.3125C37.4375 38.0625 37.5833 38.8958 37.75 39.8125C37.9167 40.6875 38.0625 41.5417 38.1875 42.375C38.3125 43.1667 38.3958 43.8542 38.4375 44.4375C38.5208 45.0208 38.5 45.375 38.375 45.5C38.2917 45.625 37.9583 45.6667 37.375 45.625C36.7917 45.5417 36.1458 45.4167 35.4375 45.25C34.7708 45.0417 34.125 44.8125 33.5 44.5625C32.9167 44.2708 32.5417 44 32.375 43.75C32.2083 43.5417 32.0417 43.2292 31.875 42.8125C31.75 42.3958 31.5833 41.6667 31.375 40.625C30.9167 41.25 30.4167 41.9167 29.875 42.625C29.375 43.2917 28.875 43.9167 28.375 44.5C27.875 45.0417 27.4167 45.4792 27 45.8125C26.5833 46.1458 26.2708 46.3125 26.0625 46.3125C25.7292 46.3125 25.2292 45.9792 24.5625 45.3125C23.8958 44.6042 23.2292 43.8125 22.5625 42.9375C21.8958 42.0625 21.2917 41.2292 20.75 40.4375C20.2083 39.6458 19.9167 39.125 19.875 38.875C19.7917 38.625 19.75 37.9375 19.75 36.8125C19.7917 35.6875 19.8333 34.4375 19.875 33.0625C19.9583 31.6458 20.0417 30.25 20.125 28.875C20.2083 27.4583 20.2917 26.3333 20.375 25.5C20.4583 24.6667 20.5417 23.75 20.625 22.75C20.75 21.7083 20.875 20.75 21 19.875C21.125 18.9583 21.2292 18.1667 21.3125 17.5C21.4375 16.8333 21.5417 16.4375 21.625 16.3125C21.7083 16.1875 21.9375 16.125 22.3125 16.125C22.7292 16.0833 23.1458 16.1042 23.5625 16.1875C24.0208 16.2292 24.4375 16.3333 24.8125 16.5C25.1875 16.625 25.4375 16.7917 25.5625 17C25.6458 17.1667 25.6875 17.7083 25.6875 18.625C25.7292 19.5 25.75 20.5833 25.75 21.875C25.75 23.125 25.75 24.5 25.75 26C25.75 27.4583 25.7292 28.8333 25.6875 30.125C25.6875 31.375 25.6667 32.4583 25.625 33.375C25.625 34.25 25.625 34.7708 25.625 34.9375C25.625 35.2708 25.8125 35.9167 26.1875 36.875C26.6042 37.8333 27.0208 38.75 27.4375 39.625L30.6875 35.75C30.6458 35 30.6042 34.0417 30.5625 32.875C30.5625 31.7083 30.5417 30.4792 30.5 29.1875C30.4583 27.8958 30.4167 26.5833 30.375 25.25C30.3333 23.9167 30.3125 22.7083 30.3125 21.625C30.3125 20.5417 30.3125 19.6458 30.3125 18.9375C30.3125 18.2292 30.3333 17.8125 30.375 17.6875C30.5 17.4375 30.75 17.1042 31.125 16.6875C31.5 16.2708 31.9167 15.875 32.375 15.5C32.8333 15.125 33.25 14.8333 33.625 14.625C34.0417 14.4167 34.3333 14.3958 34.5 14.5625ZM47.3125 21.125C47.3958 21.3333 47.4375 22 47.4375 23.125C47.4792 24.2083 47.4792 25.5417 47.4375 27.125C47.4375 28.6667 47.3958 30.3333 47.3125 32.125C47.2292 33.875 47.125 35.5417 47 37.125C46.9167 38.6667 46.8125 40 46.6875 41.125C46.5625 42.2083 46.4375 42.8542 46.3125 43.0625C45.9375 43.6458 45.375 44.0208 44.625 44.1875C43.875 44.3125 43.3333 44.3333 43 44.25C42.8333 44.25 42.6458 43.7708 42.4375 42.8125C42.2708 41.8542 42.1042 40.6458 41.9375 39.1875C41.7708 37.7292 41.625 36.1458 41.5 34.4375C41.375 32.7292 41.2708 31.1042 41.1875 29.5625C41.1042 27.9792 41.0625 26.6042 41.0625 25.4375C41.0625 24.2708 41.1042 23.5208 41.1875 23.1875C41.3125 22.6458 41.6667 22.1667 42.25 21.75C42.875 21.3333 43.5208 21.0208 44.1875 20.8125C44.8958 20.6042 45.5417 20.5208 46.125 20.5625C46.75 20.5625 47.1458 20.75 47.3125 21.125ZM52.1875 8.75C51.6875 9.375 51.0833 10.0417 50.375 10.75C49.7083 11.4583 49.0417 12.1458 48.375 12.8125C47.7083 13.4375 47.0833 14 46.5 14.5C45.9583 14.9583 45.5417 15.25 45.25 15.375C44.7917 15.5833 44.2708 15.5208 43.6875 15.1875C43.1042 14.8542 42.7917 14.3958 42.75 13.8125C42.75 13.6458 42.9167 13.25 43.25 12.625C43.5833 11.9583 43.9792 11.25 44.4375 10.5C44.8958 9.75 45.3542 9.02083 45.8125 8.3125C46.2708 7.60417 46.625 7.10417 46.875 6.8125C47.1667 6.47917 47.3542 6.25 47.4375 6.125C47.5208 6 47.6667 5.89583 47.875 5.8125C48.25 5.5625 48.75 5.4375 49.375 5.4375C50 5.39583 50.625 5.45833 51.25 5.625C51.875 5.75 52.3958 5.95833 52.8125 6.25C53.2292 6.54167 53.3958 6.83333 53.3125 7.125C53.2708 7.29167 53.125 7.54167 52.875 7.875C52.625 8.20833 52.3958 8.5 52.1875 8.75ZM70.3125 17.25C70.3542 17.7083 70.2708 18.4167 70.0625 19.375C69.8958 20.3333 69.625 21.2917 69.25 22.25C68.9167 23.2083 68.4583 24.0417 67.875 24.75C67.3333 25.4583 66.7083 25.8125 66 25.8125C65.5 25.8125 65.0833 25.4167 64.75 24.625C64.4583 23.8333 64.2292 22.9167 64.0625 21.875C63.9375 20.7917 63.8333 19.7292 63.75 18.6875C63.6667 17.6458 63.5833 16.9167 63.5 16.5C63.375 16.2917 63.125 16.1042 62.75 15.9375C62.4167 15.7292 62.0833 15.625 61.75 15.625C61.4167 15.625 61.0417 15.8958 60.625 16.4375C60.2083 16.9792 59.7917 17.6042 59.375 18.3125C59 19.0208 58.6667 19.7292 58.375 20.4375C58.125 21.1458 58.0208 21.6667 58.0625 22C58.0625 22.25 58.3333 22.6875 58.875 23.3125C59.4167 23.9375 60.0833 24.6875 60.875 25.5625C61.7083 26.3958 62.5833 27.3125 63.5 28.3125C64.4583 29.2708 65.3333 30.25 66.125 31.25C66.9167 32.2083 67.5833 33.125 68.125 34C68.7083 34.875 69.0208 35.625 69.0625 36.25C69.1042 37 68.8958 37.9583 68.4375 39.125C68.0208 40.2917 67.4792 41.4167 66.8125 42.5C66.1458 43.5833 65.4375 44.5208 64.6875 45.3125C63.9375 46.1042 63.2708 46.5208 62.6875 46.5625C62.1042 46.6042 61.25 46.2917 60.125 45.625C59.0417 44.9167 57.9375 44.1042 56.8125 43.1875C55.7292 42.2292 54.75 41.2917 53.875 40.375C53.0417 39.4583 52.5625 38.7917 52.4375 38.375C52.3125 38 52.2292 37.5 52.1875 36.875C52.1875 36.25 52.2083 35.625 52.25 35C52.3333 34.375 52.4583 33.8542 52.625 33.4375C52.7917 32.9792 53 32.75 53.25 32.75C53.5 32.75 54 33.1875 54.75 34.0625C55.5 34.8958 56.3125 35.8542 57.1875 36.9375C58.0625 37.9792 58.9167 38.9375 59.75 39.8125C60.5833 40.6458 61.1875 41.0625 61.5625 41.0625C61.7708 41.0625 62 40.9167 62.25 40.625C62.5 40.2917 62.7292 39.9167 62.9375 39.5C63.1458 39.0833 63.3125 38.6667 63.4375 38.25C63.6042 37.7917 63.6875 37.4375 63.6875 37.1875C63.6458 36.8125 63.3125 36.2708 62.6875 35.5625C62.0625 34.8542 61.2708 34.0625 60.3125 33.1875C59.3542 32.3125 58.3125 31.3958 57.1875 30.4375C56.0625 29.4375 55.0208 28.5 54.0625 27.625C53.1042 26.75 52.3125 25.9583 51.6875 25.25C51.0625 24.5417 50.7292 24 50.6875 23.625C50.6458 23.25 50.7708 22.6667 51.0625 21.875C51.3542 21.0417 51.7292 20.1458 52.1875 19.1875C52.6458 18.1875 53.1667 17.1667 53.75 16.125C54.375 15.0833 55 14.125 55.625 13.25C56.25 12.375 56.8542 11.6667 57.4375 11.125C58.0625 10.5417 58.6042 10.25 59.0625 10.25C59.9792 10.25 61.0625 10.5 62.3125 11C63.6042 11.5 64.8333 12.125 66 12.875C67.1667 13.5833 68.1667 14.3333 69 15.125C69.8333 15.9167 70.2708 16.625 70.3125 17.25ZM114.875 4.875C114.958 5.04167 115 5.625 115 6.625C115.042 7.625 115.042 8.83333 115 10.25C115 11.6667 114.958 13.1875 114.875 14.8125C114.792 16.3958 114.688 17.8958 114.562 19.3125C114.479 20.1042 114.333 21.2917 114.125 22.875C113.958 24.4583 113.75 26.2083 113.5 28.125C113.25 30.0417 112.979 32.0208 112.688 34.0625C112.438 36.0625 112.188 37.9167 111.938 39.625C111.688 41.2917 111.458 42.6875 111.25 43.8125C111.083 44.9375 110.958 45.5417 110.875 45.625C110.708 45.75 110.438 46.0625 110.062 46.5625C109.688 47.0208 109.271 47.5 108.812 48C108.396 48.4583 108 48.8333 107.625 49.125C107.25 49.4167 107 49.4583 106.875 49.25C106.792 48.8333 106.75 47.5417 106.75 45.375C106.75 44.4583 106.75 43.3125 106.75 41.9375C106.792 40.5208 106.833 38.8125 106.875 36.8125C106.958 34.8125 107.062 32.4792 107.188 29.8125C107.312 27.1458 107.458 24.0625 107.625 20.5625C106.792 23.3958 106.042 25.8958 105.375 28.0625C104.75 30.2292 104.188 32.125 103.688 33.75C103.229 35.3333 102.833 36.6875 102.5 37.8125C102.167 38.8958 101.875 39.7917 101.625 40.5C101.083 42.1667 100.729 43.1458 100.562 43.4375C100.396 43.4792 100.125 43.3542 99.75 43.0625C99.4167 42.7708 99.0208 42.3542 98.5625 41.8125C98.1458 41.2292 97.7083 40.5417 97.25 39.75C96.8333 38.9583 96.4792 38.0833 96.1875 37.125C95.8958 36.25 95.5208 35.0833 95.0625 33.625C94.6458 32.375 94.1042 30.75 93.4375 28.75C92.7708 26.7083 91.9583 24.1667 91 21.125C91.25 24.5417 91.4583 27.5417 91.625 30.125C91.7917 32.7083 91.9167 34.9583 92 36.875C92.125 38.7917 92.2083 40.4167 92.25 41.75C92.3333 43.0417 92.375 44.125 92.375 45C92.4167 47 92.3542 48.1458 92.1875 48.4375C91.7708 48.4375 91.3125 48.25 90.8125 47.875C90.3542 47.4583 89.8958 46.9792 89.4375 46.4375C89.0208 45.8542 88.6458 45.2917 88.3125 44.75C88.0208 44.2083 87.8542 43.8125 87.8125 43.5625C87.7708 43.3958 87.6458 42.625 87.4375 41.25C87.2292 39.875 86.9792 38.125 86.6875 36C86.4375 33.8333 86.1458 31.4167 85.8125 28.75C85.5208 26.0417 85.2292 23.2917 84.9375 20.5C84.6875 17.7083 84.4792 15 84.3125 12.375C84.1458 9.70833 84.0625 7.33333 84.0625 5.25C84.0625 4.91667 84.4792 4.47917 85.3125 3.9375C86.1458 3.35417 87.0833 2.8125 88.125 2.3125C89.2083 1.77083 90.2083 1.3125 91.125 0.9375C92.0417 0.520833 92.6042 0.3125 92.8125 0.3125C92.9792 0.3125 93.1458 0.791667 93.3125 1.75C93.5208 2.70833 93.75 3.91667 94 5.375C94.25 6.83333 94.5208 8.45833 94.8125 10.25C95.1042 12.0417 95.4375 13.75 95.8125 15.375C96.1042 17.0417 96.4583 18.7708 96.875 20.5625C97.2083 22.1042 97.5833 23.8125 98 25.6875C98.4583 27.5208 98.9583 29.3125 99.5 31.0625C100.083 28.5208 100.604 26.2292 101.062 24.1875C101.562 22.1042 102 20.3333 102.375 18.875C102.833 17.1667 103.229 15.6458 103.562 14.3125C104.312 11.0625 105.042 8.5 105.75 6.625C106.5 4.75 106.979 3.64583 107.188 3.3125C107.312 3.14583 107.75 3.10417 108.5 3.1875C109.292 3.27083 110.146 3.41667 111.062 3.625C111.979 3.79167 112.812 4 113.562 4.25C114.354 4.5 114.792 4.70833 114.875 4.875ZM122.875 35.875C123 36.2083 123.062 36.6458 123.062 37.1875C123.062 37.6875 123 38.2292 122.875 38.8125C122.75 39.3542 122.583 39.8958 122.375 40.4375C122.208 40.9375 122.021 41.3542 121.812 41.6875C121.646 41.9375 121.417 42.1458 121.125 42.3125C120.833 42.4792 120.521 42.6042 120.188 42.6875C119.854 42.7292 119.542 42.75 119.25 42.75C118.958 42.75 118.729 42.75 118.562 42.75C118.312 42.7083 118.042 42.5208 117.75 42.1875C117.5 41.8542 117.271 41.4583 117.062 41C116.896 40.5 116.771 39.9792 116.688 39.4375C116.604 38.8542 116.625 38.3125 116.75 37.8125C116.875 37.3125 117.229 36.875 117.812 36.5C118.396 36.125 119.021 35.8333 119.688 35.625C120.396 35.4167 121.062 35.3333 121.688 35.375C122.312 35.375 122.708 35.5417 122.875 35.875Z" fill="black"/>
</svg>
